<svg xmlns="http://www.w3.org/2000/svg" xmlns:v="https://vecta.io/nano" width="44" height="44" viewBox="0 0 256 256"><g transform="matrix(2.81 0 0 2.81 1.406593 1.406593)"><circle cx="45" cy="45" r="45" fill="#235bd8"></circle><path d="M64.567 26.495H25.433a5.69 5.69 0 0 0-5.689 5.689v25.631a5.69 5.69 0 0 0 5.689 5.689h39.135a5.69 5.69 0 0 0 5.689-5.689V32.184c-.001-3.141-2.548-5.689-5.69-5.689zM63.343 57.47c-.295.306-.688.46-1.081.46a1.5 1.5 0 0 1-1.04-.419l-9.419-9.065-1.357 1.489c-1.394 1.528-3.378 2.404-5.446 2.404s-4.053-.876-5.446-2.404l-1.337-1.467-9.022 9.023c-.292.293-.677.439-1.061.439s-.768-.146-1.061-.439a1.5 1.5 0 0 1 0-2.121l9.12-9.121-9.563-10.495a1.5 1.5 0 0 1 2.217-2.021l12.924 14.18A4.32 4.32 0 0 0 45 49.339c1.244 0 2.392-.506 3.229-1.426l2.422-2.657 10.502-11.522a1.5 1.5 0 0 1 2.217 2.021l-9.546 10.474 9.477 9.121a1.5 1.5 0 0 1 .042 2.12z" fill="#fff"></path></g></svg>